<svg width="308" height="34" viewBox="0 0 308 34" fill="none" xmlns="http://www.w3.org/2000/svg">
<path d="M29.7236 25.1719C28.2555 25.1719 26.9772 24.8389 25.8887 24.1729C24.8073 23.4997 23.9658 22.5544 23.3643 21.3369C22.7627 20.1195 22.4619 18.6943 22.4619 17.0615C22.4619 15.4287 22.7555 14.0107 23.3428 12.8076C23.9372 11.5973 24.7679 10.6592 25.835 9.99316C26.9092 9.32715 28.1732 8.99414 29.627 8.99414C30.3861 8.99414 31.1344 9.09798 31.8721 9.30566C32.6169 9.51335 33.2829 9.82129 33.8701 10.2295L32.5703 13.334C32.2624 12.9544 31.8506 12.6715 31.335 12.4854C30.8193 12.292 30.3001 12.1953 29.7773 12.1953C28.9967 12.1953 28.3164 12.3958 27.7363 12.7969C27.1634 13.1979 26.7194 13.7637 26.4043 14.4941C26.0892 15.2174 25.9316 16.0697 25.9316 17.0508C25.9316 18.0534 26.0928 18.9235 26.415 19.6611C26.7445 20.3916 27.2028 20.9609 27.79 21.3691C28.3773 21.7702 29.0719 21.9707 29.874 21.9707C30.4111 21.9707 30.9375 21.8669 31.4531 21.6592C31.9688 21.4515 32.3626 21.165 32.6348 20.7998L33.9238 23.9043C33.3294 24.3268 32.667 24.6455 31.9365 24.8604C31.2132 25.068 30.4756 25.1719 29.7236 25.1719ZM39.7998 25.1719C38.7542 25.1719 37.8483 24.9248 37.082 24.4307C36.3229 23.9365 35.7357 23.2383 35.3203 22.3359C34.9121 21.4264 34.708 20.3486 34.708 19.1025C34.708 17.8564 34.9121 16.7822 35.3203 15.8799C35.7357 14.9775 36.3229 14.2829 37.082 13.7959C37.8483 13.3018 38.7542 13.0547 39.7998 13.0547C40.8597 13.0547 41.7692 13.3018 42.5283 13.7959C43.2946 14.2829 43.8818 14.9811 44.29 15.8906C44.7054 16.793 44.9131 17.8636 44.9131 19.1025C44.9131 20.3415 44.7054 21.4157 44.29 22.3252C43.8818 23.2347 43.2946 23.9365 42.5283 24.4307C41.7692 24.9248 40.8597 25.1719 39.7998 25.1719ZM39.7998 22.3145C40.4229 22.3145 40.8991 22.0316 41.2285 21.4658C41.5651 20.9001 41.7334 20.1123 41.7334 19.1025C41.7334 18.1071 41.5651 17.3265 41.2285 16.7607C40.8991 16.195 40.4229 15.9121 39.7998 15.9121C39.1911 15.9121 38.7184 16.195 38.3818 16.7607C38.0524 17.3193 37.8877 18.0999 37.8877 19.1025C37.8877 20.1123 38.0524 20.9001 38.3818 21.4658C38.7184 22.0316 39.1911 22.3145 39.7998 22.3145ZM46.4492 25V13.2266H49.5967V14.709H50.0479L49.3066 15.665C49.4714 14.8916 49.8258 14.265 50.3701 13.7852C50.9215 13.2982 51.5804 13.0547 52.3467 13.0547C52.9697 13.0547 53.514 13.248 53.9795 13.6348C54.445 14.0143 54.7493 14.5228 54.8926 15.1602L54.5381 14.709H54.957L54.5703 15.1602C54.821 14.5013 55.2399 13.9857 55.8271 13.6133C56.4215 13.2409 57.0732 13.0547 57.7822 13.0547C58.749 13.0547 59.5225 13.4271 60.1025 14.1719C60.6826 14.9095 60.9727 15.887 60.9727 17.1045V25H57.6211V17.1475C57.6211 16.7607 57.5173 16.4456 57.3096 16.2021C57.109 15.9587 56.8405 15.8369 56.5039 15.8369C56.1673 15.8369 55.8952 15.9622 55.6875 16.2129C55.487 16.4564 55.3867 16.7679 55.3867 17.1475V25H52.0352V17.1475C52.0352 16.7607 51.9349 16.4456 51.7344 16.2021C51.5339 15.9587 51.2617 15.8369 50.918 15.8369C50.5885 15.8369 50.32 15.9622 50.1123 16.2129C49.9046 16.4564 49.8008 16.7751 49.8008 17.1689V25H46.4492ZM61.9932 16.1162V13.2266H69.6094V16.1162H61.9932ZM63.9268 25V12.4102C63.9268 11.5723 64.0628 10.8311 64.335 10.1865C64.6071 9.54199 65.0404 9.03711 65.6348 8.67188C66.2363 8.29948 67.0133 8.11328 67.9658 8.11328C68.3812 8.11328 68.8073 8.14909 69.2441 8.2207C69.6882 8.28516 70.0247 8.37467 70.2539 8.48926L69.1152 11.25C69.0007 11.1999 68.8753 11.1641 68.7393 11.1426C68.6104 11.1139 68.4958 11.0996 68.3955 11.0996C68.0947 11.0996 67.8333 11.2142 67.6113 11.4434C67.3893 11.6725 67.2783 12.0306 67.2783 12.5176V25H63.9268ZM73.1865 29.6836C72.8141 29.6836 72.4238 29.6442 72.0156 29.5654C71.6074 29.4867 71.2565 29.3971 70.9629 29.2969L72.1016 26.6006C72.2233 26.6794 72.3665 26.7474 72.5312 26.8047C72.696 26.862 72.8464 26.8906 72.9824 26.8906C73.2689 26.8906 73.4945 26.8083 73.6592 26.6436C73.8239 26.486 73.9456 26.2962 74.0244 26.0742C74.1032 25.8594 74.1641 25.666 74.207 25.4941L74.626 23.6357L74.8301 25.4512L70.125 13.2266H73.6484L75.4639 19.3389L75.8613 20.8213H75.915L76.2695 19.3389L77.623 13.2266H81.1572L77.0215 26.2461C76.9069 26.6042 76.7673 26.9837 76.6025 27.3848C76.445 27.7858 76.2266 28.1582 75.9473 28.502C75.6751 28.8529 75.3171 29.1357 74.873 29.3506C74.429 29.5726 73.8669 29.6836 73.1865 29.6836ZM88.0215 25.1719C86.9115 25.1719 85.9447 24.9427 85.1211 24.4844C84.3047 24.026 83.6673 23.3851 83.209 22.5615C82.7578 21.738 82.5322 20.7712 82.5322 19.6611V9.16602H86.002V19.7578C86.002 20.4525 86.1846 21.0075 86.5498 21.4229C86.9222 21.8382 87.4128 22.0459 88.0215 22.0459C88.6374 22.0459 89.1279 21.8418 89.4932 21.4336C89.8584 21.0254 90.041 20.4668 90.041 19.7578V9.16602H93.5107V19.6611C93.5107 20.7712 93.2852 21.7415 92.834 22.5723C92.3828 23.3958 91.7454 24.0368 90.9219 24.4951C90.1055 24.9463 89.1387 25.1719 88.0215 25.1719ZM96.2285 25V9.16602H99.6982V25H96.2285Z" fill="#FEFEFE"/>
<path d="M110.232 25V10.5195H112.123V25H110.232ZM106.688 10.8848V9.16602H115.668V10.8848H106.688ZM116.828 25V13.3984H118.633V14.9668H118.934L118.375 15.6758C118.525 15.2103 118.747 14.7949 119.041 14.4297C119.335 14.0573 119.693 13.7637 120.115 13.5488C120.545 13.334 121.039 13.2266 121.598 13.2266C121.791 13.2266 121.992 13.2445 122.199 13.2803C122.414 13.3089 122.557 13.3411 122.629 13.377L121.877 15.1816C121.827 15.1602 121.73 15.1423 121.587 15.1279C121.451 15.1064 121.311 15.0957 121.168 15.0957C120.81 15.0957 120.434 15.2067 120.04 15.4287C119.646 15.6436 119.313 15.9909 119.041 16.4707C118.769 16.9505 118.633 17.5807 118.633 18.3613V25H116.828ZM127.635 25.1719C126.689 25.1719 125.866 24.9212 125.164 24.4199C124.469 23.9186 123.929 23.2168 123.542 22.3145C123.162 21.4049 122.973 20.3451 122.973 19.1348C122.973 17.946 123.162 16.9111 123.542 16.0303C123.929 15.1423 124.469 14.4548 125.164 13.9678C125.866 13.4736 126.689 13.2266 127.635 13.2266C128.573 13.2266 129.389 13.4736 130.084 13.9678C130.779 14.4548 131.316 15.1423 131.695 16.0303C132.082 16.9111 132.275 17.946 132.275 19.1348C132.275 20.3522 132.082 21.4157 131.695 22.3252C131.316 23.2275 130.779 23.9294 130.084 24.4307C129.389 24.9248 128.573 25.1719 127.635 25.1719ZM127.635 23.4961C128.494 23.4961 129.182 23.1022 129.697 22.3145C130.213 21.5267 130.471 20.4668 130.471 19.1348C130.471 17.8529 130.213 16.8288 129.697 16.0625C129.182 15.2891 128.494 14.9023 127.635 14.9023C126.768 14.9023 126.074 15.2891 125.551 16.0625C125.035 16.8288 124.777 17.8529 124.777 19.1348C124.777 20.4525 125.035 21.5088 125.551 22.3037C126.074 23.0986 126.768 23.4961 127.635 23.4961ZM138.012 25.1719C137.353 25.1719 136.758 25.0072 136.229 24.6777C135.699 24.3411 135.28 23.8792 134.972 23.292C134.664 22.7048 134.51 22.028 134.51 21.2617V13.3984H136.314V21.2402C136.314 21.8848 136.504 22.429 136.884 22.873C137.271 23.3171 137.797 23.5391 138.463 23.5391C138.893 23.5391 139.283 23.4424 139.634 23.249C139.992 23.0485 140.275 22.7764 140.482 22.4326C140.697 22.0889 140.805 21.6986 140.805 21.2617V13.3984H142.609V22.2715C142.609 22.5365 142.685 22.7799 142.835 23.002C142.985 23.2168 143.204 23.3958 143.49 23.5391L142.781 25.1719C142.237 24.8926 141.829 24.5632 141.557 24.1836C141.292 23.7969 141.141 23.4102 141.105 23.0234L141.492 23.4531H140.74L141.385 23.0449C141.084 23.668 140.633 24.18 140.031 24.5811C139.437 24.9749 138.764 25.1719 138.012 25.1719ZM145.639 25V8.45703H147.443V14.6875H147.615L147.229 16.3418V22.3574L147.723 23.668H147.443V25H145.639ZM150.451 25.1719C149.141 25.1719 148.127 24.6419 147.411 23.582C146.702 22.515 146.348 21.0469 146.348 19.1777C146.348 17.3301 146.699 15.8763 147.4 14.8164C148.109 13.7565 149.119 13.2266 150.43 13.2266C151.798 13.2266 152.861 13.7565 153.62 14.8164C154.386 15.8763 154.77 17.3301 154.77 19.1777C154.77 21.0326 154.386 22.4971 153.62 23.5713C152.861 24.6383 151.805 25.1719 150.451 25.1719ZM150.086 23.4961C150.981 23.4961 151.683 23.1094 152.191 22.3359C152.707 21.5625 152.965 20.5098 152.965 19.1777C152.965 17.8457 152.703 16.8001 152.181 16.041C151.665 15.2819 150.967 14.9023 150.086 14.9023C149.198 14.9023 148.507 15.2819 148.013 16.041C147.519 16.8001 147.271 17.8457 147.271 19.1777C147.271 20.5312 147.519 21.5911 148.013 22.3574C148.507 23.1165 149.198 23.4961 150.086 23.4961ZM159.26 25.1719C158.751 25.1719 158.336 25.0573 158.014 24.8281C157.699 24.599 157.466 24.2731 157.315 23.8506C157.165 23.4209 157.09 22.9089 157.09 22.3145V8.45703H158.895V22.3574C158.895 22.4648 158.905 22.6081 158.927 22.7871C158.955 22.9661 159.027 23.1309 159.142 23.2812C159.256 23.4245 159.453 23.4961 159.732 23.4961C159.919 23.4961 160.083 23.4674 160.227 23.4102V25.043C160.09 25.0859 159.933 25.1182 159.754 25.1396C159.575 25.1611 159.41 25.1719 159.26 25.1719ZM166.436 25.1719C165.49 25.1719 164.663 24.9212 163.954 24.4199C163.252 23.9186 162.704 23.2132 162.311 22.3037C161.924 21.3942 161.73 20.3236 161.73 19.0918C161.73 17.9316 161.906 16.9111 162.257 16.0303C162.615 15.1494 163.123 14.4619 163.782 13.9678C164.441 13.4736 165.225 13.2266 166.135 13.2266C166.987 13.2266 167.728 13.4486 168.358 13.8926C168.996 14.3366 169.49 14.9596 169.841 15.7617C170.192 16.5638 170.367 17.502 170.367 18.5762C170.367 18.834 170.356 19.0775 170.335 19.3066C170.321 19.5286 170.303 19.7363 170.281 19.9297H163.105V18.4258H168.605C168.605 17.373 168.387 16.5244 167.95 15.8799C167.513 15.2282 166.908 14.9023 166.135 14.9023C165.569 14.9023 165.089 15.0814 164.695 15.4395C164.301 15.7975 164.001 16.2952 163.793 16.9326C163.592 17.57 163.492 18.3112 163.492 19.1562C163.492 20.0371 163.61 20.8034 163.847 21.4551C164.083 22.0996 164.423 22.6009 164.867 22.959C165.311 23.3171 165.841 23.4961 166.457 23.4961C166.858 23.4961 167.288 23.4102 167.746 23.2383C168.204 23.0664 168.62 22.8158 168.992 22.4863L169.658 24.1191C169.207 24.4486 168.695 24.7064 168.122 24.8926C167.556 25.0788 166.994 25.1719 166.436 25.1719ZM175.652 25.1719C174.986 25.1719 174.31 25.0179 173.622 24.71C172.942 24.3949 172.358 23.9688 171.871 23.4316L172.602 21.7988C173.031 22.3359 173.515 22.762 174.052 23.0771C174.589 23.3851 175.094 23.5391 175.566 23.5391C176.075 23.5391 176.494 23.3743 176.823 23.0449C177.16 22.7083 177.328 22.3001 177.328 21.8203C177.328 21.3262 177.149 20.9108 176.791 20.5742C176.433 20.2305 175.882 19.9368 175.137 19.6934C174.578 19.5072 174.077 19.2493 173.633 18.9199C173.196 18.5905 172.849 18.2002 172.591 17.749C172.34 17.2979 172.215 16.793 172.215 16.2344C172.215 15.6328 172.362 15.1064 172.655 14.6553C172.949 14.2041 173.343 13.8532 173.837 13.6025C174.338 13.3519 174.9 13.2266 175.523 13.2266C176.118 13.2266 176.701 13.3411 177.274 13.5703C177.847 13.7995 178.316 14.1146 178.682 14.5156L178.016 16.1055C177.693 15.7188 177.31 15.4144 176.866 15.1924C176.429 14.9704 175.996 14.8594 175.566 14.8594C175.108 14.8594 174.729 14.9954 174.428 15.2676C174.127 15.5397 173.977 15.8906 173.977 16.3203C173.977 16.7786 174.152 17.1725 174.503 17.502C174.861 17.8242 175.409 18.1107 176.146 18.3613C176.705 18.5475 177.206 18.7982 177.65 19.1133C178.094 19.4212 178.445 19.8008 178.703 20.252C178.961 20.7031 179.09 21.2331 179.09 21.8418C179.09 22.4863 178.939 23.0592 178.639 23.5605C178.338 24.0618 177.926 24.4557 177.403 24.7422C176.888 25.0286 176.304 25.1719 175.652 25.1719ZM181.324 25V8.45703H183.129V14.6445H183.537L182.785 15.375C183 14.709 183.405 14.1862 183.999 13.8066C184.601 13.4199 185.277 13.2266 186.029 13.2266C187.053 13.2266 187.87 13.5739 188.479 14.2686C189.094 14.9561 189.402 15.8763 189.402 17.0293V25H187.598V17.2441C187.598 16.5208 187.397 15.9443 186.996 15.5146C186.602 15.0778 186.094 14.8594 185.471 14.8594C185.005 14.8594 184.597 14.9596 184.246 15.1602C183.895 15.3607 183.619 15.6436 183.419 16.0088C183.226 16.3669 183.129 16.7858 183.129 17.2656V25H181.324ZM196.299 25.1719C195.354 25.1719 194.53 24.9212 193.828 24.4199C193.133 23.9186 192.593 23.2168 192.206 22.3145C191.826 21.4049 191.637 20.3451 191.637 19.1348C191.637 17.946 191.826 16.9111 192.206 16.0303C192.593 15.1423 193.133 14.4548 193.828 13.9678C194.53 13.4736 195.354 13.2266 196.299 13.2266C197.237 13.2266 198.053 13.4736 198.748 13.9678C199.443 14.4548 199.98 15.1423 200.359 16.0303C200.746 16.9111 200.939 17.946 200.939 19.1348C200.939 20.3522 200.746 21.4157 200.359 22.3252C199.98 23.2275 199.443 23.9294 198.748 24.4307C198.053 24.9248 197.237 25.1719 196.299 25.1719ZM196.299 23.4961C197.158 23.4961 197.846 23.1022 198.361 22.3145C198.877 21.5267 199.135 20.4668 199.135 19.1348C199.135 17.8529 198.877 16.8288 198.361 16.0625C197.846 15.2891 197.158 14.9023 196.299 14.9023C195.432 14.9023 194.738 15.2891 194.215 16.0625C193.699 16.8288 193.441 17.8529 193.441 19.1348C193.441 20.4525 193.699 21.5088 194.215 22.3037C194.738 23.0986 195.432 23.4961 196.299 23.4961ZM207.32 25.1719C206.375 25.1719 205.551 24.9212 204.85 24.4199C204.155 23.9186 203.614 23.2168 203.228 22.3145C202.848 21.4049 202.658 20.3451 202.658 19.1348C202.658 17.946 202.848 16.9111 203.228 16.0303C203.614 15.1423 204.155 14.4548 204.85 13.9678C205.551 13.4736 206.375 13.2266 207.32 13.2266C208.258 13.2266 209.075 13.4736 209.77 13.9678C210.464 14.4548 211.001 15.1423 211.381 16.0303C211.768 16.9111 211.961 17.946 211.961 19.1348C211.961 20.3522 211.768 21.4157 211.381 22.3252C211.001 23.2275 210.464 23.9294 209.77 24.4307C209.075 24.9248 208.258 25.1719 207.32 25.1719ZM207.32 23.4961C208.18 23.4961 208.867 23.1022 209.383 22.3145C209.898 21.5267 210.156 20.4668 210.156 19.1348C210.156 17.8529 209.898 16.8288 209.383 16.0625C208.867 15.2891 208.18 14.9023 207.32 14.9023C206.454 14.9023 205.759 15.2891 205.236 16.0625C204.721 16.8288 204.463 17.8529 204.463 19.1348C204.463 20.4525 204.721 21.5088 205.236 22.3037C205.759 23.0986 206.454 23.4961 207.32 23.4961ZM217.891 25.1719C216.924 25.1719 216.183 24.8604 215.667 24.2373C215.159 23.6143 214.904 22.8086 214.904 21.8203V9.93945H216.709V21.6484C216.709 22.2285 216.831 22.6833 217.074 23.0127C217.325 23.335 217.633 23.4961 217.998 23.4961C218.127 23.4961 218.259 23.471 218.396 23.4209C218.532 23.3708 218.657 23.3099 218.771 23.2383L219.438 24.8281C219.258 24.8997 219.04 24.9749 218.782 25.0537C218.524 25.1325 218.227 25.1719 217.891 25.1719ZM213.121 15.0742V13.3984H219.158V15.0742H213.121ZM221.5 25V13.3984H223.305V25H221.5ZM222.402 11.7871C222.008 11.7871 221.675 11.6546 221.403 11.3896C221.138 11.1175 221.006 10.7845 221.006 10.3906C221.006 9.99674 221.138 9.66732 221.403 9.40234C221.675 9.13021 222.008 8.99414 222.402 8.99414C222.796 8.99414 223.126 9.13021 223.391 9.40234C223.663 9.66732 223.799 9.99674 223.799 10.3906C223.799 10.7845 223.663 11.1175 223.391 11.3896C223.126 11.6546 222.796 11.7871 222.402 11.7871ZM226.141 25V13.3984H227.945V14.6875H228.354L227.623 15.418C227.852 14.7161 228.268 14.1755 228.869 13.7959C229.471 13.4163 230.137 13.2266 230.867 13.2266C231.877 13.2266 232.686 13.5846 233.295 14.3008C233.911 15.0098 234.219 15.9408 234.219 17.0938V25H232.414V17.3086C232.414 16.5781 232.217 15.9873 231.823 15.5361C231.437 15.085 230.924 14.8594 230.287 14.8594C229.829 14.8594 229.424 14.9632 229.073 15.1709C228.722 15.3786 228.447 15.6686 228.246 16.041C228.046 16.4062 227.945 16.8359 227.945 17.3301V25H226.141ZM240.943 29.6836C240.299 29.6836 239.654 29.5869 239.01 29.3936C238.372 29.2074 237.807 28.9316 237.312 28.5664L238 26.8906C238.365 27.263 238.809 27.5423 239.332 27.7285C239.862 27.9147 240.378 28.0078 240.879 28.0078C241.438 28.0078 241.946 27.8968 242.404 27.6748C242.87 27.4528 243.239 27.1126 243.511 26.6543C243.79 26.2031 243.93 25.6302 243.93 24.9355V23.3242H243.607L244.016 22.1426V15.998L243.457 14.9023H243.887V13.3984H245.648V24.8711C245.648 25.9095 245.451 26.7868 245.058 27.5029C244.664 28.2191 244.112 28.7598 243.403 29.125C242.701 29.4974 241.882 29.6836 240.943 29.6836ZM240.814 25.043C239.504 25.043 238.455 24.5166 237.667 23.4639C236.886 22.4111 236.496 20.9681 236.496 19.1348C236.496 17.2943 236.886 15.8512 237.667 14.8057C238.455 13.7529 239.497 13.2266 240.793 13.2266C241.724 13.2266 242.487 13.4844 243.081 14C243.675 14.5156 244.116 15.221 244.402 16.1162C244.689 17.0114 244.832 18.0319 244.832 19.1777C244.832 20.3737 244.682 21.4121 244.381 22.293C244.08 23.1667 243.632 23.8434 243.038 24.3232C242.444 24.8031 241.702 25.043 240.814 25.043ZM241.137 23.3672C242.018 23.3672 242.709 22.9805 243.21 22.207C243.718 21.4336 243.973 20.388 243.973 19.0703C243.973 17.7669 243.715 16.7464 243.199 16.0088C242.691 15.2712 241.996 14.9023 241.115 14.9023C240.249 14.9023 239.561 15.2747 239.053 16.0195C238.551 16.7572 238.301 17.7812 238.301 19.0918C238.301 20.4238 238.559 21.4694 239.074 22.2285C239.59 22.9876 240.277 23.3672 241.137 23.3672ZM259.098 25.1719C257.809 25.1719 256.684 24.8424 255.725 24.1836C254.765 23.5176 254.02 22.583 253.49 21.3799C252.96 20.1768 252.695 18.7624 252.695 17.1367C252.695 15.4896 252.967 14.0573 253.512 12.8398C254.056 11.6152 254.822 10.6699 255.811 10.0039C256.799 9.33073 257.959 8.99414 259.291 8.99414C260.143 8.99414 260.949 9.13737 261.708 9.42383C262.474 9.70312 263.13 10.054 263.674 10.4766L262.943 12.2383C262.671 11.9303 262.345 11.6618 261.966 11.4326C261.593 11.2035 261.189 11.028 260.752 10.9062C260.322 10.7773 259.885 10.7129 259.441 10.7129C258.46 10.7129 257.604 10.9779 256.874 11.5078C256.151 12.0378 255.589 12.7826 255.188 13.7422C254.786 14.7018 254.586 15.8262 254.586 17.1152C254.586 18.3971 254.772 19.5143 255.145 20.4668C255.517 21.4121 256.043 22.1462 256.724 22.6689C257.404 23.1917 258.202 23.4531 259.119 23.4531C259.928 23.4531 260.623 23.224 261.203 22.7656C261.79 22.3073 262.242 21.6771 262.557 20.875C262.872 20.0729 263.029 19.1562 263.029 18.125H258.84V16.4062H264.877V17.7598C264.877 19.2279 264.641 20.5205 264.168 21.6377C263.702 22.7477 263.036 23.6143 262.17 24.2373C261.303 24.8604 260.279 25.1719 259.098 25.1719ZM270.699 25.1719C270.04 25.1719 269.446 25.0072 268.916 24.6777C268.386 24.3411 267.967 23.8792 267.659 23.292C267.351 22.7048 267.197 22.028 267.197 21.2617V13.3984H269.002V21.2402C269.002 21.8848 269.192 22.429 269.571 22.873C269.958 23.3171 270.484 23.5391 271.15 23.5391C271.58 23.5391 271.97 23.4424 272.321 23.249C272.679 23.0485 272.962 22.7764 273.17 22.4326C273.385 22.0889 273.492 21.6986 273.492 21.2617V13.3984H275.297V22.2715C275.297 22.5365 275.372 22.7799 275.522 23.002C275.673 23.2168 275.891 23.3958 276.178 23.5391L275.469 25.1719C274.924 24.8926 274.516 24.5632 274.244 24.1836C273.979 23.7969 273.829 23.4102 273.793 23.0234L274.18 23.4531H273.428L274.072 23.0449C273.771 23.668 273.32 24.18 272.719 24.5811C272.124 24.9749 271.451 25.1719 270.699 25.1719ZM278.412 25V13.3984H280.217V25H278.412ZM279.314 11.7871C278.921 11.7871 278.588 11.6546 278.315 11.3896C278.05 11.1175 277.918 10.7845 277.918 10.3906C277.918 9.99674 278.05 9.66732 278.315 9.40234C278.588 9.13021 278.921 8.99414 279.314 8.99414C279.708 8.99414 280.038 9.13021 280.303 9.40234C280.575 9.66732 280.711 9.99674 280.711 10.3906C280.711 10.7845 280.575 11.1175 280.303 11.3896C280.038 11.6546 279.708 11.7871 279.314 11.7871ZM291.883 25.1719C291.489 24.957 291.17 24.7386 290.927 24.5166C290.683 24.2946 290.501 24.0547 290.379 23.7969C290.264 23.5319 290.2 23.2311 290.186 22.8945L290.508 23.1953H289.67L290.143 21.8848V16.1699L289.691 14.9023H289.906V8.45703H291.711V22.1855C291.711 22.5508 291.786 22.8265 291.937 23.0127C292.087 23.1989 292.305 23.3743 292.592 23.5391L291.883 25.1719ZM286.898 25.1719C285.545 25.1719 284.485 24.6383 283.719 23.5713C282.96 22.4971 282.58 21.0326 282.58 19.1777C282.58 17.3301 282.963 15.8763 283.729 14.8164C284.496 13.7565 285.559 13.2266 286.92 13.2266C288.23 13.2266 289.237 13.7565 289.938 14.8164C290.647 15.8763 291.002 17.3301 291.002 19.1777C291.002 21.0469 290.644 22.515 289.928 23.582C289.219 24.6419 288.209 25.1719 286.898 25.1719ZM287.264 23.4961C288.159 23.4961 288.85 23.1165 289.337 22.3574C289.831 21.5911 290.078 20.5312 290.078 19.1777C290.078 17.8457 289.831 16.8001 289.337 16.041C288.85 15.2819 288.159 14.9023 287.264 14.9023C286.383 14.9023 285.681 15.2819 285.158 16.041C284.643 16.8001 284.385 17.8457 284.385 19.1777C284.385 20.5098 284.643 21.5625 285.158 22.3359C285.674 23.1094 286.376 23.4961 287.264 23.4961ZM298.93 25.1719C297.984 25.1719 297.157 24.9212 296.448 24.4199C295.746 23.9186 295.199 23.2132 294.805 22.3037C294.418 21.3942 294.225 20.3236 294.225 19.0918C294.225 17.9316 294.4 16.9111 294.751 16.0303C295.109 15.1494 295.618 14.4619 296.276 13.9678C296.935 13.4736 297.719 13.2266 298.629 13.2266C299.481 13.2266 300.222 13.4486 300.853 13.8926C301.49 14.3366 301.984 14.9596 302.335 15.7617C302.686 16.5638 302.861 17.502 302.861 18.5762C302.861 18.834 302.851 19.0775 302.829 19.3066C302.815 19.5286 302.797 19.7363 302.775 19.9297H295.6V18.4258H301.1C301.1 17.373 300.881 16.5244 300.444 15.8799C300.007 15.2282 299.402 14.9023 298.629 14.9023C298.063 14.9023 297.583 15.0814 297.189 15.4395C296.796 15.7975 296.495 16.2952 296.287 16.9326C296.087 17.57 295.986 18.3112 295.986 19.1562C295.986 20.0371 296.104 20.8034 296.341 21.4551C296.577 22.0996 296.917 22.6009 297.361 22.959C297.805 23.3171 298.335 23.4961 298.951 23.4961C299.352 23.4961 299.782 23.4102 300.24 23.2383C300.699 23.0664 301.114 22.8158 301.486 22.4863L302.152 24.1191C301.701 24.4486 301.189 24.7064 300.616 24.8926C300.05 25.0788 299.488 25.1719 298.93 25.1719Z" fill="#FBFBFB"/>
<path d="M3.24516 28H16.2759C16.8067 28 17.2174 27.5646 17.2174 27.0018C17.2174 26.524 16.9069 26.1736 16.5263 25.9825C15.2943 25.3984 15.054 23.5933 16.3059 22.3296C16.8168 21.8518 17.2074 21.3209 17.2074 20.2484V8.49354C17.2074 6.19991 16.0956 5 13.9422 5H3.26519C1.12178 5 0 6.18929 0 8.49354V24.5383C0 26.8107 1.12178 28 3.24516 28ZM3.11496 21.0023C2.78443 21.0023 2.50398 20.7156 2.50398 20.3546V7.43167C2.50398 7.07064 2.78443 6.78393 3.11496 6.78393C3.44548 6.78393 3.72593 7.07064 3.72593 7.43167V20.3546C3.72593 20.7156 3.44548 21.0023 3.11496 21.0023ZM6.52037 11.9552C6.11974 11.9552 5.76918 11.5942 5.76918 11.1694C5.76918 10.7235 6.11974 10.373 6.52037 10.373H13.7719C14.1826 10.373 14.5231 10.7235 14.5231 11.1694C14.5231 11.5942 14.1826 11.9552 13.7719 11.9552H6.52037ZM6.52037 15.0346C6.11974 15.0346 5.76918 14.6842 5.76918 14.2382C5.76918 13.8135 6.11974 13.4524 6.52037 13.4524H12.0291C12.4398 13.4524 12.7803 13.8135 12.7803 14.2382C12.7803 14.6842 12.4398 15.0346 12.0291 15.0346H6.52037ZM3.51559 26.0037C2.44389 26.0037 1.883 25.356 1.883 24.3578C1.883 23.3915 2.52402 22.7225 3.5857 22.7225H13.5816C13.6918 22.7225 13.802 22.7119 13.9021 22.6907C13.4013 23.8163 13.4614 25.0374 14.0023 26.0037H3.51559Z" fill="#FEFEFE"/>
</svg>
