<svg width="18" height="23" viewBox="0 0 18 23" fill="none" xmlns="http://www.w3.org/2000/svg">
<path d="M3.24516 23H16.2759C16.8067 23 17.2174 22.5646 17.2174 22.0018C17.2174 21.524 16.9069 21.1736 16.5263 20.9825C15.2943 20.3984 15.054 18.5933 16.3059 17.3296C16.8168 16.8518 17.2074 16.3209 17.2074 15.2484V3.49354C17.2074 1.19991 16.0956 0 13.9422 0H3.26519C1.12178 0 0 1.18929 0 3.49354V19.5383C0 21.8107 1.12178 23 3.24516 23ZM3.11496 16.0023C2.78443 16.0023 2.50398 15.7156 2.50398 15.3546V2.43167C2.50398 2.07064 2.78443 1.78393 3.11496 1.78393C3.44548 1.78393 3.72593 2.07064 3.72593 2.43167V15.3546C3.72593 15.7156 3.44548 16.0023 3.11496 16.0023ZM6.52037 6.95522C6.11974 6.95522 5.76918 6.59418 5.76918 6.16944C5.76918 5.72345 6.11974 5.37304 6.52037 5.37304H13.7719C14.1826 5.37304 14.5231 5.72345 14.5231 6.16944C14.5231 6.59418 14.1826 6.95522 13.7719 6.95522H6.52037ZM6.52037 10.0346C6.11974 10.0346 5.76918 9.68421 5.76918 9.23823C5.76918 8.81348 6.11974 8.45245 6.52037 8.45245H12.0291C12.4398 8.45245 12.7803 8.81348 12.7803 9.23823C12.7803 9.68421 12.4398 10.0346 12.0291 10.0346H6.52037ZM3.51559 21.0037C2.44389 21.0037 1.883 20.356 1.883 19.3578C1.883 18.3915 2.52402 17.7225 3.5857 17.7225H13.5816C13.6918 17.7225 13.802 17.7119 13.9021 17.6907C13.4013 18.8163 13.4614 20.0374 14.0023 21.0037H3.51559Z" fill="black"/>
</svg>
